<svg width="448" height="126" viewBox="0 0 448 126" fill="none" xmlns="http://www.w3.org/2000/svg">
<path d="M388.244 2.66116C432.647 28.9614 447.45 118.765 447.45 118.765C447.45 118.765 392.958 43.613 311.554 35.9145C311.554 35.9145 348.792 2.33076 388.244 2.66116Z" fill="url(#paint0_linear_1_20)"/>
<path d="M35.6149 70.3586C35.3728 67.9177 34.3339 66.0215 32.4982 64.6699C30.6625 63.3184 28.1712 62.6426 25.0242 62.6426C22.8859 62.6426 21.0805 62.9452 19.6078 63.5503C18.1352 64.1354 17.0056 64.9524 16.2188 66.0013C15.4523 67.0503 15.069 68.2405 15.069 69.5719C15.0286 70.6814 15.2606 71.6497 15.765 72.4768C16.2894 73.3038 17.0056 74.02 17.9133 74.6251C18.8211 75.2102 19.8701 75.7246 21.0603 76.1684C22.2505 76.592 23.5213 76.9551 24.8729 77.2577L30.4406 78.5891C33.1437 79.1943 35.625 80.0012 37.8843 81.0098C40.1436 82.0184 42.1004 83.2591 43.7545 84.7317C45.4087 86.2043 46.6897 87.9391 47.5974 89.9362C48.5254 91.9333 48.9994 94.2229 49.0196 96.805C48.9994 100.597 48.0312 103.886 46.1148 106.669C44.2185 109.433 41.475 111.582 37.8843 113.115C34.3137 114.628 30.0069 115.384 24.9637 115.384C19.9609 115.384 15.6036 114.617 11.8918 113.084C8.2002 111.551 5.3155 109.282 3.23772 106.276C1.1801 103.25 0.100864 99.5082 0 95.05H12.6785C12.8197 97.1278 13.4148 98.8626 14.4638 100.255C15.533 101.626 16.9551 102.665 18.7303 103.371C20.5257 104.057 22.5531 104.4 24.8124 104.4C27.0314 104.4 28.9579 104.077 30.5919 103.432C32.246 102.786 33.527 101.889 34.4348 100.739C35.3425 99.5888 35.7964 98.2675 35.7964 96.7748C35.7964 95.3828 35.3829 94.2128 34.5558 93.2647C33.7489 92.3166 32.5587 91.5097 30.9852 90.844C29.4319 90.1783 27.5256 89.5731 25.2663 89.0284L18.5185 87.3339C13.2938 86.0631 9.16848 84.0761 6.14258 81.3729C3.11668 78.6698 1.61381 75.0286 1.63399 70.4494C1.61381 66.6973 2.61236 63.4192 4.62963 60.6152C6.66707 57.8112 9.46099 55.6225 13.0114 54.049C16.5618 52.4755 20.5963 51.6888 25.115 51.6888C29.7144 51.6888 33.7287 52.4755 37.1581 54.049C40.6076 55.6225 43.2906 57.8112 45.207 60.6152C47.1234 63.4192 48.1118 66.667 48.1724 70.3586H35.6149Z" fill="url(#paint1_linear_1_20)"/>
<path d="M57.5905 114.507V68.0287H70.4808V114.507H57.5905ZM64.0659 62.0374C62.1495 62.0374 60.5054 61.402 59.1337 60.1311C57.7821 58.84 57.1063 57.2968 57.1063 55.5014C57.1063 53.7263 57.7821 52.2032 59.1337 50.9323C60.5054 49.6413 62.1495 48.9958 64.0659 48.9958C65.9823 48.9958 67.6163 49.6413 68.9679 50.9323C70.3396 52.2032 71.0255 53.7263 71.0255 55.5014C71.0255 57.2968 70.3396 58.84 68.9679 60.1311C67.6163 61.402 65.9823 62.0374 64.0659 62.0374Z" fill="url(#paint2_linear_1_20)"/>
<path d="M105.528 68.0287V77.7116H77.5387V68.0287H105.528ZM83.8931 56.8934H96.7835V100.224C96.7835 101.414 96.965 102.342 97.3282 103.008C97.6913 103.654 98.1956 104.108 98.8411 104.37C99.5068 104.632 100.273 104.763 101.141 104.763C101.746 104.763 102.351 104.713 102.956 104.612C103.562 104.491 104.025 104.4 104.348 104.34L106.376 113.932C105.73 114.133 104.822 114.365 103.652 114.628C102.482 114.91 101.06 115.081 99.3858 115.142C96.2792 115.263 93.5559 114.849 91.2158 113.901C88.896 112.953 87.0905 111.481 85.7995 109.484C84.5084 107.486 83.873 104.965 83.8931 101.919V56.8934Z" fill="url(#paint3_linear_1_20)"/>
<path d="M134.607 115.414C129.826 115.414 125.711 114.446 122.262 112.509C118.832 110.553 116.19 107.789 114.334 104.218C112.478 100.628 111.55 96.3814 111.55 91.4794C111.55 86.6985 112.478 82.5026 114.334 78.8917C116.19 75.2808 118.802 72.4667 122.171 70.4494C125.56 68.4321 129.534 67.4235 134.093 67.4235C137.159 67.4235 140.014 67.9177 142.656 68.9062C145.319 69.8745 147.639 71.337 149.616 73.2938C151.613 75.2505 153.166 77.7116 154.276 80.677C155.385 83.6222 155.94 87.0717 155.94 91.0255V94.5658H116.694V86.5775H143.806C143.806 84.7216 143.403 83.0775 142.596 81.6452C141.789 80.213 140.669 79.0934 139.237 78.2865C137.825 77.4594 136.181 77.0459 134.305 77.0459C132.348 77.0459 130.613 77.4998 129.1 78.4075C127.607 79.2951 126.437 80.4954 125.59 82.0084C124.743 83.5011 124.309 85.1654 124.289 87.0011V94.5961C124.289 96.8958 124.713 98.8828 125.56 100.557C126.427 102.231 127.648 103.523 129.221 104.43C130.795 105.338 132.661 105.792 134.819 105.792C136.251 105.792 137.563 105.59 138.753 105.187C139.943 104.783 140.962 104.178 141.809 103.371C142.656 102.564 143.302 101.576 143.745 100.406L155.668 101.193C155.062 104.057 153.822 106.559 151.946 108.697C150.09 110.815 147.689 112.469 144.744 113.659C141.819 114.829 138.44 115.414 134.607 115.414Z" fill="url(#paint4_linear_1_20)"/>
<path d="M198.212 70.3586C197.97 67.9177 196.931 66.0215 195.095 64.6699C193.259 63.3184 190.768 62.6426 187.621 62.6426C185.483 62.6426 183.677 62.9452 182.205 63.5503C180.732 64.1354 179.602 64.9524 178.816 66.0013C178.049 67.0503 177.666 68.2405 177.666 69.5719C177.626 70.6814 177.858 71.6497 178.362 72.4768C178.886 73.3038 179.602 74.02 180.51 74.6251C181.418 75.2102 182.467 75.7246 183.657 76.1684C184.847 76.592 186.118 76.9551 187.47 77.2577L193.037 78.5891C195.741 79.1943 198.222 80.0012 200.481 81.0098C202.741 82.0184 204.697 83.2591 206.351 84.7317C208.006 86.2043 209.287 87.9391 210.194 89.9362C211.122 91.9333 211.596 94.2229 211.617 96.805C211.596 100.597 210.628 103.886 208.712 106.669C206.815 109.433 204.072 111.582 200.481 113.115C196.911 114.628 192.604 115.384 187.561 115.384C182.558 115.384 178.2 114.617 174.489 113.084C170.797 111.551 167.912 109.282 165.835 106.276C163.777 103.25 162.698 99.5082 162.597 95.05H175.275C175.417 97.1278 176.012 98.8626 177.061 100.255C178.13 101.626 179.552 102.665 181.327 103.371C183.123 104.057 185.15 104.4 187.409 104.4C189.628 104.4 191.555 104.077 193.189 103.432C194.843 102.786 196.124 101.889 197.032 100.739C197.939 99.5888 198.393 98.2675 198.393 96.7748C198.393 95.3828 197.98 94.2128 197.153 93.2647C196.346 92.3166 195.156 91.5097 193.582 90.844C192.029 90.1783 190.122 89.5731 187.863 89.0284L181.115 87.3339C175.891 86.0631 171.765 84.0761 168.739 81.3729C165.714 78.6698 164.211 75.0286 164.231 70.4494C164.211 66.6973 165.209 63.4192 167.226 60.6152C169.264 57.8112 172.058 55.6225 175.608 54.049C179.159 52.4755 183.193 51.6888 187.712 51.6888C192.311 51.6888 196.326 52.4755 199.755 54.049C203.204 55.6225 205.887 57.8112 207.804 60.6152C209.72 63.4192 210.709 66.667 210.769 70.3586H198.212Z" fill="url(#paint5_linear_1_20)"/>
<path d="M233.078 52.5361V114.507H220.187V52.5361H233.078Z" fill="url(#paint6_linear_1_20)"/>
<path d="M243.404 114.507V68.0287H256.294V114.507H243.404ZM249.879 62.0374C247.963 62.0374 246.319 61.402 244.947 60.1311C243.595 58.84 242.919 57.2968 242.919 55.5014C242.919 53.7263 243.595 52.2032 244.947 50.9323C246.319 49.6413 247.963 48.9958 249.879 48.9958C251.795 48.9958 253.429 49.6413 254.781 50.9323C256.153 52.2032 256.839 53.7263 256.839 55.5014C256.839 57.2968 256.153 58.84 254.781 60.1311C253.429 61.402 251.795 62.0374 249.879 62.0374Z" fill="url(#paint7_linear_1_20)"/>
<path d="M287.62 115.414C282.859 115.414 278.764 114.406 275.334 112.388C271.925 110.351 269.303 107.527 267.467 103.916C265.652 100.305 264.744 96.1494 264.744 91.4492C264.744 86.6884 265.662 82.5127 267.497 78.9219C269.353 75.311 271.986 72.4969 275.395 70.4797C278.804 68.4422 282.859 67.4235 287.559 67.4235C291.614 67.4235 295.164 68.1598 298.21 69.6324C301.256 71.105 303.667 73.1727 305.442 75.8355C307.217 78.4983 308.196 81.6251 308.377 85.2158H296.213C295.87 82.896 294.962 81.03 293.49 79.6179C292.037 78.1856 290.131 77.4695 287.771 77.4695C285.774 77.4695 284.029 78.0142 282.536 79.1035C281.063 80.1726 279.914 81.736 279.087 83.7936C278.259 85.8512 277.846 88.3426 277.846 91.2676C277.846 94.233 278.249 96.7546 279.056 98.8324C279.883 100.91 281.043 102.494 282.536 103.583C284.029 104.672 285.774 105.217 287.771 105.217C289.244 105.217 290.565 104.914 291.735 104.309C292.925 103.704 293.903 102.827 294.67 101.677C295.457 100.507 295.971 99.1047 296.213 97.4707H308.377C308.176 101.021 307.207 104.148 305.472 106.851C303.758 109.534 301.387 111.632 298.362 113.145C295.336 114.658 291.755 115.414 287.62 115.414Z" fill="url(#paint8_linear_1_20)"/>
<path d="M337.812 115.414C333.031 115.414 328.916 114.446 325.466 112.509C322.037 110.553 319.394 107.789 317.538 104.218C315.682 100.628 314.754 96.3814 314.754 91.4794C314.754 86.6985 315.682 82.5026 317.538 78.8917C319.394 75.2808 322.006 72.4667 325.375 70.4494C328.764 68.4321 332.738 67.4235 337.297 67.4235C340.364 67.4235 343.218 67.9177 345.861 68.9062C348.523 69.8745 350.843 71.337 352.82 73.2938C354.817 75.2505 356.371 77.7116 357.48 80.677C358.59 83.6222 359.144 87.0717 359.144 91.0255V94.5658H319.898V86.5775H347.011C347.011 84.7216 346.607 83.0775 345.8 81.6452C344.993 80.213 343.874 79.0934 342.441 78.2865C341.029 77.4594 339.385 77.0459 337.509 77.0459C335.552 77.0459 333.818 77.4998 332.305 78.4075C330.812 79.2951 329.642 80.4954 328.795 82.0084C327.947 83.5011 327.514 85.1654 327.493 87.0011V94.5961C327.493 96.8958 327.917 98.8828 328.764 100.557C329.632 102.231 330.852 103.523 332.426 104.43C333.999 105.338 335.865 105.792 338.024 105.792C339.456 105.792 340.767 105.59 341.957 105.187C343.147 104.783 344.166 104.178 345.013 103.371C345.861 102.564 346.506 101.576 346.95 100.406L358.872 101.193C358.267 104.057 357.026 106.559 355.15 108.697C353.294 110.815 350.894 112.469 347.949 113.659C345.023 114.829 341.645 115.414 337.812 115.414Z" fill="url(#paint9_linear_1_20)"/>
<defs>
<linearGradient id="paint0_linear_1_20" x1="336.145" y1="124.985" x2="487.228" y2="117.787" gradientUnits="userSpaceOnUse">
<stop stop-color="#FF6C6C"/>
<stop offset="0.567708" stop-color="#FFBC6D"/>
</linearGradient>
<linearGradient id="paint1_linear_1_20" x1="55.3827" y1="115.926" x2="467.542" y2="115.926" gradientUnits="userSpaceOnUse">
<stop stop-color="#FF6C6C"/>
<stop offset="0.567708" stop-color="#FFBC6D"/>
</linearGradient>
<linearGradient id="paint2_linear_1_20" x1="55.3827" y1="115.926" x2="467.542" y2="115.926" gradientUnits="userSpaceOnUse">
<stop stop-color="#FF6C6C"/>
<stop offset="0.567708" stop-color="#FFBC6D"/>
</linearGradient>
<linearGradient id="paint3_linear_1_20" x1="55.3827" y1="115.926" x2="467.542" y2="115.926" gradientUnits="userSpaceOnUse">
<stop stop-color="#FF6C6C"/>
<stop offset="0.567708" stop-color="#FFBC6D"/>
</linearGradient>
<linearGradient id="paint4_linear_1_20" x1="55.3827" y1="115.926" x2="467.542" y2="115.926" gradientUnits="userSpaceOnUse">
<stop stop-color="#FF6C6C"/>
<stop offset="0.567708" stop-color="#FFBC6D"/>
</linearGradient>
<linearGradient id="paint5_linear_1_20" x1="55.3827" y1="115.926" x2="467.542" y2="115.926" gradientUnits="userSpaceOnUse">
<stop stop-color="#FF6C6C"/>
<stop offset="0.567708" stop-color="#FFBC6D"/>
</linearGradient>
<linearGradient id="paint6_linear_1_20" x1="55.3827" y1="115.926" x2="467.542" y2="115.926" gradientUnits="userSpaceOnUse">
<stop stop-color="#FF6C6C"/>
<stop offset="0.567708" stop-color="#FFBC6D"/>
</linearGradient>
<linearGradient id="paint7_linear_1_20" x1="55.3827" y1="115.926" x2="467.542" y2="115.926" gradientUnits="userSpaceOnUse">
<stop stop-color="#FF6C6C"/>
<stop offset="0.567708" stop-color="#FFBC6D"/>
</linearGradient>
<linearGradient id="paint8_linear_1_20" x1="55.3827" y1="115.926" x2="467.542" y2="115.926" gradientUnits="userSpaceOnUse">
<stop stop-color="#FF6C6C"/>
<stop offset="0.567708" stop-color="#FFBC6D"/>
</linearGradient>
<linearGradient id="paint9_linear_1_20" x1="55.3827" y1="115.926" x2="467.542" y2="115.926" gradientUnits="userSpaceOnUse">
<stop stop-color="#FF6C6C"/>
<stop offset="0.567708" stop-color="#FFBC6D"/>
</linearGradient>
</defs>
</svg>
